PathFileType	4	(X/Y/Z)	1103211_Jog01.trc	
DataRate	CameraRate	NumFrames	NumMarkers	Units	OrigDataRate	OrigDataStartFrame	OrigNumFrames
300	300	4	69	mm	300	844	258
Frame#	Time	CLAV			STRN			RSHO			LSHO			C7			T10			RBAK			RASI			LASI			RPSI			LPSI			LGTR			RGTR			LHJC			RHJC			LANK			RANK			LHEE			RHEE			LMT5			RMT5			LTOE			RTOE			RELB			RWRA			RWRB			RFIN			LELB			LWRB			LWRA			LFIN			RFP1			RFP2			RFP3			RFM1			RFM2			RFM3			RFA1			RFA2			RFA3			LFP1			LFP2			LFP3			LFM1			LFM2			LFM3			LFA1			LFA2			LFA3			LKNE			RKNE			RTP1			RTP2			RTP3			RTA1			RTA2			RTA3			LTP1			LTP2			LTP3			LTA1			LFHD			LBHD			RFHD			RBHD			LUPA			LFRA			RUPA			RFRA			
		X1	Y1	Z1	X2	Y2	Z2	X3	Y3	Z3	X4	Y4	Z4	X5	Y5	Z5	X6	Y6	Z6	X7	Y7	Z7	X8	Y8	Z8	X9	Y9	Z9	X10	Y10	Z10	X11	Y11	Z11	X12	Y12	Z12	X13	Y13	Z13	X14	Y14	Z14	X15	Y15	Z15	X16	Y16	Z16	X17	Y17	Z17	X18	Y18	Z18	X19	Y19	Z19	X20	Y20	Z20	X21	Y21	Z21	X22	Y22	Z22	X23	Y23	Z23	X24	Y24	Z24	X25	Y25	Z25	X26	Y26	Z26	X27	Y27	Z27	X28	Y28	Z28	X29	Y29	Z29	X30	Y30	Z30	X31	Y31	Z31	X32	Y32	Z32	X33	Y33	Z33	X34	Y34	Z34	X35	Y35	Z35	X36	Y36	Z36	X37	Y37	Z37	X38	Y38	Z38	X39	Y39	Z39	X40	Y40	Z40	X41	Y41	Z41	X42	Y42	Z42	X43	Y43	Z43	X44	Y44	Z44	X45	Y45	Z45	X46	Y46	Z46	X47	Y47	Z47	X48	Y48	Z48	X49	Y49	Z49	X50	Y50	Z50	X51	Y51	Z51	X52	Y52	Z52	X53	Y53	Z53	X54	Y54	Z54	X55	Y55	Z55	X56	Y56	Z56	X57	Y57	Z57	X58	Y58	Z58	X59	Y59	Z59	X60	Y60	Z60	X61	Y61	Z61	X62	Y62	Z62	X63	Y63	Z63	X64	Y64	Z64	X65	Y65	Z65	X66	Y66	Z66	X67	Y67	Z67	X68	Y68	Z68	X69	Y69	Z69	

226	0.75000	2227.27417	1386.39758	28.16855	2266.43555	1215.38025	33.79341	2123.08691	1434.63220	166.53387	2192.38330	1431.69055	-152.96803	2094.07617	1450.99329	-4.58968	2033.60327	1167.62134	-8.71056	2020.97144	1370.80042	74.47493	2180.20093	961.78223	119.55698	2180.19189	972.86310	-101.78011	2004.12585	996.65668	58.31033	2004.13953	991.29901	-38.36960	2072.81738	891.38324	-157.65462	2120.00806	899.55792	177.45412	2098.85986	901.26306	-74.34459	2095.43701	893.78851	84.42883	1690.03271	204.30171	-81.01317	2277.80273	123.63486	131.55930	1634.47754	245.39079	-24.89987	2216.24829	85.79520	80.43888	1705.86438	76.06147	-102.63393	2392.97632	98.38797	180.02432	1768.07947	68.56929	-41.57321	2434.52441	135.68953	117.72667	1899.43469	1263.60779	273.39813	2021.04248	1053.01208	235.12595	1972.16809	1024.70630	282.13727	2068.10205	1000.06384	272.24634	2123.06299	1163.23694	-295.52295	2312.99268	1159.63196	-135.07002	2283.11182	1223.15369	-134.18117	2362.61548	1241.15649	-117.53197	2146.04492	806.01178	183.33589	2185.42480	718.54419	178.15494	2218.29688	632.49615	162.77846	2188.29565	877.98779	167.13507	2231.05713	792.86060	164.07829	2267.27588	709.29144	151.72824	2235.94727	854.49731	109.26502	2275.07983	765.04272	103.15312	2298.50146	678.98523	92.69244	2033.01123	799.84137	-164.46812	1991.06592	698.48651	-147.65562	1959.37378	629.51294	-127.36781	2113.07129	832.62671	-156.15245	2072.87256	733.83722	-148.63197	2038.76343	650.29730	-132.48146	2149.76685	765.66229	-107.34651	2111.52734	671.01874	-85.25285	2061.89063	593.51575	-69.34578	1911.68066	542.91809	-113.85265	2243.36865	529.03479	147.93759	2241.13867	415.74200	164.93373	2246.02661	309.98682	155.46870	2258.05249	224.94998	140.86719	2300.06323	450.00098	102.26225	2302.31665	368.97858	99.40248	2303.46899	284.22745	96.70439	1840.83765	434.59918	-122.71690	1797.06152	368.17325	-113.60146	1753.84302	293.67639	-99.35454	1919.80310	444.88416	-61.95052	2235.71045	1642.19800	-70.67671	2121.13818	1621.44275	-84.70131	2230.83936	1645.31543	76.45621	2091.85938	1628.72180	76.11362	2185.86938	1331.10303	-233.75325	2250.24487	1156.35010	-210.79378	1961.81177	1322.82104	250.19922	1918.80762	1172.82520	294.73273	
227	0.75333	2236.36011	1386.92285	28.87492	2275.69189	1215.96167	34.47829	2132.10669	1435.07776	167.02834	2201.61060	1432.24011	-152.20314	2103.18506	1451.32678	-4.00327	2042.84863	1168.20337	-8.35661	2030.21533	1371.21289	74.93826	2189.59497	962.09058	120.09897	2190.09229	973.71893	-101.21733	2013.72705	997.44562	58.54047	2013.92175	992.19598	-38.15587	2082.51123	892.51184	-157.57710	2129.27466	899.56958	177.70299	2108.59277	902.17328	-74.13499	2104.80713	894.31140	84.61147	1695.09265	208.05042	-81.82121	2295.06348	122.88119	131.69943	1640.55811	250.28551	-25.50586	2233.96313	83.31778	81.09800	1708.36731	79.28505	-103.42836	2411.38037	100.70440	179.27405	1770.69739	70.32570	-42.71535	2451.35547	139.68790	116.81566	1907.99036	1264.71204	273.50708	2030.11438	1054.27429	235.52055	1981.22290	1025.87268	282.46021	2077.25854	1001.42542	272.68280	2131.98975	1164.34631	-295.60974	2321.43237	1161.27722	-134.32454	2291.57373	1224.84436	-134.10844	2370.92285	1243.02051	-116.53725	2154.66797	805.74548	183.61990	2193.30713	717.78778	178.55261	2225.63379	631.44269	163.12939	2197.55420	877.59338	167.73856	2239.67578	791.75385	164.69896	2275.09644	707.85925	152.13121	2245.50732	853.55548	110.09283	2283.63477	763.64966	103.83746	2306.13623	677.42249	93.07616	2042.16711	801.21259	-164.41447	1999.69702	699.97943	-147.86708	1967.68811	631.09747	-127.47707	2122.44385	833.51385	-155.92143	2081.69336	734.95630	-148.65617	2047.18506	651.48022	-132.65938	2158.81934	766.33905	-107.31697	2120.18042	671.70282	-85.53484	2070.19824	594.30908	-69.77333	1919.46729	544.74487	-113.88359	2251.21875	528.10742	148.13144	2251.40723	414.79868	165.18671	2258.64868	308.99796	155.69342	2272.66504	224.15990	141.11530	2309.23267	450.17447	102.11980	2313.32788	369.33066	99.33411	2316.44604	284.54218	96.68018	1847.66174	437.05615	-123.03014	1803.38708	370.95096	-114.08470	1759.63049	296.77252	-100.03658	1926.95325	446.34308	-62.44830	2244.66528	1642.50659	-69.94081	2130.09692	1621.74670	-83.90352	2239.81445	1645.62317	77.19097	2100.85254	1628.99133	76.85219	2195.20972	1332.00708	-233.32005	2258.93115	1157.70471	-210.46666	1970.52820	1323.88623	250.42404	1927.46228	1173.99475	294.93903	
228	0.75667	2245.46240	1387.31763	29.57529	2284.94800	1216.40967	35.14615	2141.14722	1435.39294	167.53732	2210.83374	1432.66138	-151.45396	2112.29834	1451.53735	-3.40762	2052.09180	1168.64844	-7.97171	2039.45508	1371.49060	75.42953	2198.97998	962.23297	120.61925	2199.96045	974.45770	-100.67018	2023.31177	998.06708	58.77580	2023.67969	992.94989	-37.92851	2092.21729	893.50647	-157.50157	2138.55859	899.37628	177.94431	2118.30273	902.95496	-73.94905	2114.17163	894.67047	84.76729	1700.19629	211.81027	-82.59438	2311.87085	122.24783	131.81360	1646.68542	255.09914	-26.05360	2251.23315	81.05289	81.69920	1710.96863	82.62859	-104.28474	2429.21143	103.01594	178.52808	1773.38538	72.19500	-43.92978	2467.64355	143.58913	115.92850	1916.61987	1265.63538	273.68167	2039.26111	1055.36816	235.93555	1990.38135	1026.87097	282.83151	2086.51538	1002.63403	273.12619	2140.84399	1165.33606	-295.68927	2329.84546	1162.68970	-133.63484	2300.04248	1226.31018	-134.06706	2379.24854	1244.61743	-115.58492	2163.32544	805.29535	183.92241	2201.27686	716.87701	179.00162	2233.10010	630.24908	163.52847	2206.82373	876.99298	168.31911	2248.32861	790.48590	165.30508	2282.99219	706.29138	152.51614	2255.04492	852.41339	110.88564	2292.18164	762.08575	104.48147	2313.79639	675.71545	93.42564	2051.39600	802.41156	-164.32500	2008.48267	701.27551	-148.04176	1976.20923	632.46051	-127.57631	2131.85352	834.28137	-155.67924	2090.63086	735.92969	-148.64992	2055.79224	652.49518	-132.81386	2167.95313	766.91553	-107.27840	2129.00098	672.26874	-85.79945	2078.73438	594.94940	-70.18074	1927.52942	546.33142	-113.88704	2259.19019	527.10272	148.33473	2261.64795	413.86487	165.42877	2271.09937	308.06802	155.90712	2286.98169	223.45776	141.34906	2318.39844	450.26035	101.96968	2324.22461	369.63959	99.25949	2329.18677	284.84756	96.64173	1854.71777	439.33395	-123.32076	1809.88696	373.60724	-114.53032	1765.52283	299.80640	-100.67879	1934.31763	447.57669	-62.92467	2253.63062	1642.70435	-69.20720	2139.06250	1621.94580	-83.10942	2248.80811	1645.82117	77.92401	2109.86255	1629.15112	77.59801	2204.51270	1332.77026	-232.88570	2267.57129	1158.86719	-210.17537	1979.29517	1324.78516	250.69556	1936.21680	1174.98889	295.20221	
229	0.76000	2254.58252	1387.58130	30.26964	2294.20532	1216.72351	35.79648	2150.21045	1435.57678	168.06168	2220.05420	1432.95496	-150.72054	2121.41895	1451.62537	-2.80211	2061.33374	1168.95386	-7.55673	2048.69165	1371.63196	75.94915	2208.35669	962.20947	121.11871	2209.79541	975.07684	-100.13850	2032.87939	998.51727	59.01682	2033.41284	993.55511	-37.68773	2101.93604	894.35974	-157.42567	2147.85962	898.98303	178.17865	2127.99048	903.60449	-73.78529	2123.53125	894.86395	84.89771	1705.34961	215.58029	-83.33141	2328.19629	121.71153	131.89706	1652.86255	259.83139	-26.54195	2268.02490	78.98495	82.23227	1713.67444	86.08923	-105.20576	2446.44214	105.28289	177.79054	1776.14673	74.17573	-45.21693	2483.37695	147.34950	115.07134	1925.32581	1266.37427	273.92368	2048.48462	1056.28979	236.37178	1999.64575	1027.69800	283.25198	2095.87476	1003.68622	273.57739	2149.62769	1166.20544	-295.75903	2338.23584	1163.86609	-133.00011	2308.52197	1227.54797	-134.05385	2387.59814	1245.94263	-114.67485	2172.02246	804.66779	184.24460	2209.34546	715.82172	179.49976	2240.71094	628.92786	163.97095	2216.10376	876.19525	168.87442	2257.02148	789.07172	165.89462	2290.97656	704.60480	152.88298	2264.55591	851.08441	111.63834	2300.72656	760.36938	105.08192	2321.49756	673.88477	93.74040	2060.69922	803.42902	-164.19817	2017.42554	702.36401	-148.17555	1984.93945	633.59155	-127.66551	2141.30078	834.92346	-155.42513	2099.68750	736.74866	-148.60918	2064.58765	653.33368	-132.94026	2177.16992	767.38702	-107.22728	2137.99243	672.71008	-86.04237	2087.50317	595.42871	-70.56383	1935.87000	547.66779	-113.86522	2267.29492	526.02911	148.54477	2271.86060	412.93820	165.65712	2283.36963	307.18729	156.10547	2300.98486	222.82675	141.56300	2327.56982	450.25818	101.81361	2335.00977	369.89780	99.17933	2341.68555	285.12833	96.58714	1862.00659	441.42798	-123.58888	1816.56238	376.13925	-114.93773	1771.52185	302.77710	-101.27962	1941.89612	448.57782	-63.37976	2262.60791	1642.79163	-68.47624	2148.03687	1622.04004	-82.31895	2257.82129	1645.91016	78.65475	2118.89160	1629.20166	78.35065	2213.77686	1333.39294	-232.44994	2276.16846	1159.83545	-209.91808	1988.11475	1325.51392	251.01521	1945.07324	1175.80334	295.52362	
